<?xml version="1.0" encoding="iso-8859-1"?>
<!-- Uploaded to: SVG Repo, www.svgrepo.com, Generator: SVG Repo Mixer Tools -->
<svg fill="#000000" height="800px" width="800px" version="1.1" id="Layer_1" xmlns="http://www.w3.org/2000/svg" xmlns:xlink="http://www.w3.org/1999/xlink" 
	 viewBox="0 0 491.52 491.52" xml:space="preserve">
<g>
	<g>
		<g>
			<path d="M102.4,358.4h368.64c11.311,0,20.48-9.169,20.48-20.48V112.64c0-11.311-9.169-20.48-20.48-20.48h-40.96
				c-11.311,0-20.48,9.169-20.48,20.48s9.169,20.48,20.48,20.48h20.48v184.32H102.4V133.12h40.96c11.311,0,20.48-9.169,20.48-20.48
				s-9.169-20.48-20.48-20.48H102.4V30.72c0-11.311-9.169-20.48-20.48-20.48H20.48C9.169,10.24,0,19.409,0,30.72
				S9.169,51.2,20.48,51.2h40.96v61.44v20.48v204.8v102.4c0,11.311,9.169,20.48,20.48,20.48h87.409
				c7.081,12.242,20.305,20.48,35.471,20.48c15.166,0,28.39-8.238,35.471-20.48h174.818c7.081,12.242,20.305,20.48,35.471,20.48
				c22.63,0,40.96-18.33,40.96-40.96s-18.33-40.96-40.96-40.96c-15.166,0-28.39,8.238-35.471,20.48H240.271
				c-7.081-12.242-20.305-20.48-35.471-20.48c-15.166,0-28.39,8.238-35.471,20.48H102.4V358.4z"/>
			<path d="M272.066,167.909c0.002,0.002,0.004,0.004,0.006,0.006l0.166,0.166c0.22,0.22,0.458,0.411,0.686,0.62
				c0.23,0.21,0.444,0.431,0.685,0.632c0.027,0.023,0.057,0.041,0.084,0.063c0.343,0.284,0.702,0.537,1.058,0.795
				c0.201,0.145,0.395,0.304,0.599,0.44c0.365,0.244,0.743,0.458,1.119,0.676c0.214,0.124,0.423,0.263,0.641,0.379
				c0.341,0.181,0.692,0.333,1.041,0.494c0.266,0.123,0.527,0.259,0.797,0.37c0.295,0.121,0.597,0.215,0.896,0.321
				c0.332,0.118,0.66,0.248,0.996,0.348c0.252,0.075,0.509,0.126,0.763,0.191c0.388,0.1,0.773,0.208,1.165,0.284
				c0.236,0.046,0.475,0.069,0.712,0.107c0.412,0.066,0.822,0.138,1.236,0.178c0.262,0.026,0.525,0.026,0.787,0.042
				c0.389,0.023,0.778,0.055,1.168,0.056c0.326,0.001,0.651-0.027,0.977-0.042c0.325-0.015,0.65-0.016,0.974-0.046
				c0.39-0.036,0.776-0.104,1.164-0.162c0.258-0.039,0.518-0.063,0.774-0.112c0.411-0.078,0.817-0.188,1.224-0.292
				c0.23-0.058,0.462-0.102,0.69-0.168c0.385-0.112,0.761-0.255,1.141-0.391c0.245-0.087,0.494-0.161,0.737-0.258
				c0.326-0.13,0.641-0.29,0.961-0.438c0.288-0.133,0.58-0.254,0.863-0.4c0.258-0.135,0.506-0.294,0.76-0.44
				c0.333-0.192,0.669-0.375,0.992-0.586c0.206-0.135,0.401-0.291,0.603-0.434c0.356-0.252,0.713-0.499,1.055-0.775
				c0.19-0.154,0.369-0.329,0.555-0.491c0.333-0.29,0.667-0.575,0.984-0.889c0.025-0.025,0.053-0.045,0.078-0.07
				c0.221-0.221,0.414-0.46,0.623-0.689c0.209-0.229,0.429-0.441,0.629-0.682l0.151-0.182c0.002-0.002,0.003-0.004,0.005-0.006
				L404.853,43.831c7.241-8.689,6.067-21.603-2.622-28.844c-8.689-7.241-21.603-6.067-28.844,2.622l-88.043,105.652l-45.582-45.582
				c-7.998-7.998-20.965-7.998-28.963,0c-7.998,7.998-7.998,20.965,0,28.963L272.066,167.909z"/>
		</g>
	</g>
</g>
</svg>