<?xml version="1.0" encoding="iso-8859-1"?>
<!-- Uploaded to: SVG Repo, www.svgrepo.com, Generator: SVG Repo Mixer Tools -->
<svg fill="#000000" height="800px" width="800px" version="1.1" id="Layer_1" xmlns="http://www.w3.org/2000/svg" xmlns:xlink="http://www.w3.org/1999/xlink" 
	 viewBox="0 0 491.52 491.52" xml:space="preserve">
<g>
	<g>
		<g>
			<path d="M102.4,358.4h368.64c11.311,0,20.48-9.169,20.48-20.48V112.64c0-11.311-9.169-20.48-20.48-20.48h-40.96
				c-11.311,0-20.48,9.169-20.48,20.48s9.169,20.48,20.48,20.48h20.48v184.32H102.4V133.12h40.96c11.311,0,20.48-9.169,20.48-20.48
				s-9.169-20.48-20.48-20.48H102.4V30.72c0-11.311-9.169-20.48-20.48-20.48H20.48C9.169,10.24,0,19.409,0,30.72
				S9.169,51.2,20.48,51.2h40.96v61.44v20.48v204.8v102.4c0,11.311,9.169,20.48,20.48,20.48h87.409
				c7.081,12.242,20.305,20.48,35.471,20.48c15.166,0,28.39-8.238,35.471-20.48h174.818c7.081,12.242,20.305,20.48,35.471,20.48
				c22.63,0,40.96-18.33,40.96-40.96s-18.33-40.96-40.96-40.96c-15.166,0-28.39,8.238-35.471,20.48H240.271
				c-7.081-12.242-20.305-20.48-35.471-20.48c-15.166,0-28.39,8.238-35.471,20.48H102.4V358.4z"/>
			<path d="M210.798,188.562c7.998,7.998,20.965,7.998,28.963,0l46.958-46.958l46.958,46.958c7.998,7.998,20.965,7.998,28.963,0
				c7.998-7.998,7.998-20.965,0-28.963l-46.958-46.958l46.958-46.958c7.998-7.998,7.998-20.965,0-28.963
				c-7.998-7.998-20.965-7.998-28.963,0L286.72,83.677l-46.958-46.958c-7.998-7.998-20.965-7.998-28.963,0
				c-7.998,7.998-7.998,20.965,0,28.963l46.958,46.958l-46.958,46.958C202.8,167.596,202.8,180.564,210.798,188.562z"/>
		</g>
	</g>
</g>
</svg>